<svg xmlns="http://www.w3.org/2000/svg" width="59.048" height="63.605" viewBox="0 0 59.048 63.605">
  <g id="Group_115" data-name="Group 115" transform="translate(-432.811 -75.764)">
    <g id="Group_61" data-name="Group 61" transform="translate(440.516 109.652)">
      <g id="Group_58" data-name="Group 58" transform="translate(1.68 0)">
        <g id="Group_57" data-name="Group 57">
          <path id="Path_38" data-name="Path 38" d="M448.582,133.728a.641.641,0,0,1-.642-.642v-3.361a.642.642,0,1,1,1.283,0v3.361A.641.641,0,0,1,448.582,133.728Z" transform="translate(-447.619 -128.763)" fill="#fff"/>
          <path id="Path_39" data-name="Path 39" d="M448.4,133.87a.964.964,0,0,1-.962-.962v-3.361a.962.962,0,1,1,1.925,0v3.361A.964.964,0,0,1,448.4,133.87Zm0-4.644a.321.321,0,0,0-.321.321v3.361a.321.321,0,1,0,.642,0v-3.361A.322.322,0,0,0,448.4,129.226Z" transform="translate(-447.44 -128.584)" fill="#fff"/>
        </g>
      </g>
      <g id="Group_60" data-name="Group 60" transform="translate(0 1.681)">
        <g id="Group_59" data-name="Group 59">
          <path id="Path_40" data-name="Path 40" d="M449.323,132.987h-3.361a.642.642,0,0,1,0-1.283h3.361a.642.642,0,0,1,0,1.283Z" transform="translate(-445 -131.383)" fill="#fff"/>
          <path id="Path_41" data-name="Path 41" d="M449.144,133.129h-3.361a.962.962,0,1,1,0-1.925h3.361a.962.962,0,0,1,0,1.925Zm-3.361-1.283a.321.321,0,1,0,0,.642h3.361a.321.321,0,0,0,0-.642Z" transform="translate(-444.821 -131.204)" fill="#fff"/>
        </g>
      </g>
    </g>
    <g id="Group_66" data-name="Group 66" transform="translate(460.844 75.764)">
      <g id="Group_63" data-name="Group 63" transform="translate(1.68)">
        <g id="Group_62" data-name="Group 62">
          <path id="Path_42" data-name="Path 42" d="M480.267,80.908a.641.641,0,0,1-.642-.642V76.906a.642.642,0,1,1,1.283,0v3.361A.641.641,0,0,1,480.267,80.908Z" transform="translate(-479.304 -75.943)" fill="#fff"/>
          <path id="Path_43" data-name="Path 43" d="M480.087,81.049a.963.963,0,0,1-.962-.962V76.726a.962.962,0,1,1,1.925,0v3.361A.963.963,0,0,1,480.087,81.049Zm0-4.644a.321.321,0,0,0-.321.321v3.361a.321.321,0,0,0,.642,0V76.726A.321.321,0,0,0,480.087,76.406Z" transform="translate(-479.125 -75.764)" fill="#fff"/>
        </g>
      </g>
      <g id="Group_65" data-name="Group 65" transform="translate(0 1.68)">
        <g id="Group_64" data-name="Group 64">
          <path id="Path_44" data-name="Path 44" d="M481.009,80.166h-3.361a.642.642,0,0,1,0-1.283h3.361a.642.642,0,0,1,0,1.283Z" transform="translate(-476.685 -78.562)" fill="#fff"/>
          <path id="Path_45" data-name="Path 45" d="M480.83,80.308h-3.361a.962.962,0,0,1,0-1.925h3.361a.962.962,0,1,1,0,1.925Zm-3.361-1.283a.321.321,0,1,0,0,.642h3.361a.321.321,0,1,0,0-.642Z" transform="translate(-476.506 -78.383)" fill="#fff"/>
        </g>
      </g>
    </g>
    <g id="Group_71" data-name="Group 71" transform="translate(432.811 84.106)">
      <g id="Group_68" data-name="Group 68" transform="translate(1.68)">
        <g id="Group_67" data-name="Group 67">
          <path id="Path_46" data-name="Path 46" d="M436.572,93.911a.641.641,0,0,1-.642-.642V89.909a.642.642,0,0,1,1.283,0v3.361A.641.641,0,0,1,436.572,93.911Z" transform="translate(-435.609 -88.946)" fill="#fff"/>
          <path id="Path_47" data-name="Path 47" d="M436.392,94.052a.963.963,0,0,1-.962-.962V89.729a.962.962,0,1,1,1.925,0V93.09A.963.963,0,0,1,436.392,94.052Zm0-4.644a.321.321,0,0,0-.321.321V93.09a.321.321,0,0,0,.642,0V89.729A.321.321,0,0,0,436.392,89.409Z" transform="translate(-435.43 -88.767)" fill="#fff"/>
        </g>
      </g>
      <g id="Group_70" data-name="Group 70" transform="translate(0 1.68)">
        <g id="Group_69" data-name="Group 69">
          <path id="Path_48" data-name="Path 48" d="M437.313,93.169h-3.361a.642.642,0,1,1,0-1.283h3.361a.642.642,0,0,1,0,1.283Z" transform="translate(-432.99 -91.565)" fill="#fff"/>
          <path id="Path_49" data-name="Path 49" d="M437.134,93.311h-3.361a.962.962,0,1,1,0-1.925h3.361a.962.962,0,0,1,0,1.925Zm-3.361-1.283a.321.321,0,1,0,0,.642h3.361a.321.321,0,1,0,0-.642Z" transform="translate(-432.811 -91.386)" fill="#fff"/>
        </g>
      </g>
    </g>
    <g id="Group_73" data-name="Group 73" transform="translate(433.037 96.954)">
      <g id="Group_72" data-name="Group 72" transform="translate(0 0)">
        <path id="Path_50" data-name="Path 50" d="M435.759,113.483a2.1,2.1,0,1,1,2.1-2.095A2.1,2.1,0,0,1,435.759,113.483Zm0-2.907a.812.812,0,1,0,.812.812A.813.813,0,0,0,435.759,110.576Z" transform="translate(-433.343 -108.972)" fill="#fff"/>
        <path id="Path_51" data-name="Path 51" d="M435.58,113.625A2.416,2.416,0,1,1,438,111.209,2.419,2.419,0,0,1,435.58,113.625Zm0-4.19a1.774,1.774,0,1,0,1.775,1.775A1.777,1.777,0,0,0,435.58,109.435Zm0,2.907a1.133,1.133,0,1,1,1.133-1.132A1.134,1.134,0,0,1,435.58,112.342Zm0-1.624a.491.491,0,1,0,.491.491A.492.492,0,0,0,435.58,110.718Z" transform="translate(-433.164 -108.793)" fill="#fff"/>
      </g>
    </g>
    <g id="Group_75" data-name="Group 75" transform="translate(444.798 77.444)">
      <g id="Group_74" data-name="Group 74">
        <path id="Path_52" data-name="Path 52" d="M454.09,83.074a2.1,2.1,0,1,1,2.1-2.1A2.1,2.1,0,0,1,454.09,83.074Zm0-2.908a.812.812,0,1,0,.812.812A.813.813,0,0,0,454.09,80.166Z" transform="translate(-451.674 -78.562)" fill="#fff"/>
        <path id="Path_53" data-name="Path 53" d="M453.911,83.215a2.416,2.416,0,1,1,2.416-2.416A2.419,2.419,0,0,1,453.911,83.215Zm0-4.191a1.775,1.775,0,1,0,1.775,1.775A1.776,1.776,0,0,0,453.911,79.025Zm0,2.908a1.133,1.133,0,1,1,1.133-1.133A1.134,1.134,0,0,1,453.911,81.932Zm0-1.624a.491.491,0,1,0,.491.491A.492.492,0,0,0,453.911,80.308Z" transform="translate(-451.495 -78.383)" fill="#fff"/>
      </g>
    </g>
    <g id="Group_80" data-name="Group 80" transform="translate(486.45 88.216)">
      <g id="Group_77" data-name="Group 77" transform="translate(1.681)">
        <g id="Group_76" data-name="Group 76">
          <path id="Path_54" data-name="Path 54" d="M520.178,100.316a.641.641,0,0,1-.642-.642V96.314a.642.642,0,1,1,1.283,0v3.361A.642.642,0,0,1,520.178,100.316Z" transform="translate(-519.215 -95.351)" fill="#fff"/>
          <path id="Path_55" data-name="Path 55" d="M520,100.457a.963.963,0,0,1-.962-.962V96.134a.962.962,0,1,1,1.925,0v3.361A.964.964,0,0,1,520,100.457Zm0-4.644a.321.321,0,0,0-.321.321v3.361a.321.321,0,1,0,.642,0V96.134A.321.321,0,0,0,520,95.814Z" transform="translate(-519.036 -95.172)" fill="#fff"/>
        </g>
      </g>
      <g id="Group_79" data-name="Group 79" transform="translate(0 1.68)">
        <g id="Group_78" data-name="Group 78">
          <path id="Path_56" data-name="Path 56" d="M520.919,99.574h-3.361a.642.642,0,0,1,0-1.283h3.361a.642.642,0,1,1,0,1.283Z" transform="translate(-516.595 -97.97)" fill="#fff"/>
          <path id="Path_57" data-name="Path 57" d="M520.74,99.716h-3.361a.962.962,0,0,1,0-1.925h3.361a.962.962,0,0,1,0,1.925Zm-3.361-1.283a.321.321,0,0,0,0,.642h3.361a.321.321,0,0,0,0-.642Z" transform="translate(-516.416 -97.791)" fill="#fff"/>
        </g>
      </g>
    </g>
    <g id="Group_85" data-name="Group 85" transform="translate(467.878 108.629)">
      <g id="Group_82" data-name="Group 82" transform="translate(1.68)">
        <g id="Group_81" data-name="Group 81">
          <path id="Path_58" data-name="Path 58" d="M491.23,132.134a.642.642,0,0,1-.642-.642v-3.361a.642.642,0,1,1,1.283,0v3.361A.641.641,0,0,1,491.23,132.134Z" transform="translate(-490.267 -127.169)" fill="#fff"/>
          <path id="Path_59" data-name="Path 59" d="M491.05,132.275a.964.964,0,0,1-.962-.962v-3.361a.962.962,0,1,1,1.925,0v3.361A.964.964,0,0,1,491.05,132.275Zm0-4.644a.321.321,0,0,0-.321.321v3.361a.321.321,0,1,0,.642,0v-3.361A.321.321,0,0,0,491.05,127.632Z" transform="translate(-490.088 -126.99)" fill="#fff"/>
        </g>
      </g>
      <g id="Group_84" data-name="Group 84" transform="translate(0 1.68)">
        <g id="Group_83" data-name="Group 83">
          <path id="Path_60" data-name="Path 60" d="M491.971,131.392h-3.361a.642.642,0,0,1,0-1.283h3.361a.642.642,0,0,1,0,1.283Z" transform="translate(-487.648 -129.788)" fill="#fff"/>
          <path id="Path_61" data-name="Path 61" d="M491.792,131.534h-3.361a.962.962,0,0,1,0-1.925h3.361a.962.962,0,1,1,0,1.925Zm-3.361-1.283a.321.321,0,1,0,0,.642h3.361a.321.321,0,1,0,0-.642Z" transform="translate(-487.469 -129.609)" fill="#fff"/>
        </g>
      </g>
    </g>
    <g id="Group_87" data-name="Group 87" transform="translate(486.677 102.02)">
      <g id="Group_86" data-name="Group 86" transform="translate(0 0)">
        <path id="Path_62" data-name="Path 62" d="M519.365,121.379a2.1,2.1,0,1,1,2.095-2.1A2.1,2.1,0,0,1,519.365,121.379Zm0-2.908a.812.812,0,1,0,.812.812A.813.813,0,0,0,519.365,118.471Z" transform="translate(-516.949 -116.867)" fill="#fff"/>
        <path id="Path_63" data-name="Path 63" d="M519.186,121.52A2.416,2.416,0,1,1,521.6,119.1,2.419,2.419,0,0,1,519.186,121.52Zm0-4.191a1.775,1.775,0,1,0,1.774,1.775A1.776,1.776,0,0,0,519.186,117.33Zm0,2.908a1.133,1.133,0,1,1,1.132-1.133A1.134,1.134,0,0,1,519.186,120.237Zm0-1.624a.491.491,0,1,0,.491.491A.492.492,0,0,0,519.186,118.613Z" transform="translate(-516.77 -116.688)" fill="#fff"/>
      </g>
    </g>
    <g id="Group_89" data-name="Group 89" transform="translate(454.739 110.309)">
      <g id="Group_88" data-name="Group 88" transform="translate(0 0)">
        <path id="Path_64" data-name="Path 64" d="M469.585,134.3a2.1,2.1,0,1,1,2.1-2.1A2.1,2.1,0,0,1,469.585,134.3Zm0-2.907a.812.812,0,1,0,.812.812A.813.813,0,0,0,469.585,131.392Z" transform="translate(-467.169 -129.788)" fill="#fff"/>
        <path id="Path_65" data-name="Path 65" d="M469.406,134.441a2.416,2.416,0,1,1,2.416-2.416A2.418,2.418,0,0,1,469.406,134.441Zm0-4.19a1.774,1.774,0,1,0,1.775,1.774A1.776,1.776,0,0,0,469.406,130.251Zm0,2.907a1.133,1.133,0,1,1,1.133-1.133A1.134,1.134,0,0,1,469.406,133.158Zm0-1.624a.491.491,0,1,0,.491.491A.491.491,0,0,0,469.406,131.534Z" transform="translate(-466.99 -129.609)" fill="#fff"/>
      </g>
    </g>
    <g id="Group_91" data-name="Group 91" transform="translate(476.369 77.444)">
      <g id="Group_90" data-name="Group 90">
        <path id="Path_66" data-name="Path 66" d="M503.3,83.074a2.1,2.1,0,1,1,2.1-2.1A2.1,2.1,0,0,1,503.3,83.074Zm0-2.908a.812.812,0,1,0,.812.812A.813.813,0,0,0,503.3,80.166Z" transform="translate(-500.883 -78.562)" fill="#fff"/>
        <path id="Path_67" data-name="Path 67" d="M503.12,83.215a2.416,2.416,0,1,1,2.416-2.416A2.419,2.419,0,0,1,503.12,83.215Zm0-4.191a1.775,1.775,0,1,0,1.775,1.775A1.777,1.777,0,0,0,503.12,79.025Zm0,2.908a1.133,1.133,0,1,1,1.133-1.133A1.134,1.134,0,0,1,503.12,81.932Zm0-1.624a.491.491,0,1,0,.491.491A.492.492,0,0,0,503.12,80.308Z" transform="translate(-500.704 -78.383)" fill="#fff"/>
      </g>
    </g>
    <g id="Group_98" data-name="Group 98" transform="translate(439.072 113.119)">
      <g id="Group_93" data-name="Group 93" transform="translate(0 1.813)">
        <g id="Group_92" data-name="Group 92">
          <path id="Path_68" data-name="Path 68" d="M443.712,161.109a.642.642,0,0,1-.642-.642V148.84a.644.644,0,0,1,.253-.511l8.292-6.3a14.318,14.318,0,0,1,12.455-2.378l9.436,2.636a3.306,3.306,0,0,1,2.4,3.455l15-8.074a2.925,2.925,0,0,1,3,5.015l-20.588,14.733a10.615,10.615,0,0,1-6.978,1.714l-12.336-1.379-10.093,3.328A.654.654,0,0,1,443.712,161.109Zm.642-11.951V159.58l9.384-3.094a.629.629,0,0,1,.272-.028l12.472,1.395a9.317,9.317,0,0,0,6.11-1.495l20.588-14.733a1.651,1.651,0,0,0,.534-2.2,1.634,1.634,0,0,0-2.2-.625l-16.4,8.831a3.315,3.315,0,0,1-3.461,1c-4.667-1.431-8.177-1.927-9.881-1.4l-3.646,1.132a.642.642,0,0,1-.381-1.225L461.388,146c2.5-.776,7.164.33,10.638,1.4a2.023,2.023,0,0,0,2.132-.628.672.672,0,0,1,.071-.089,2.019,2.019,0,0,0-1.07-3.158l-9.436-2.637a13.028,13.028,0,0,0-11.332,2.165Z" transform="translate(-442.749 -136.992)" fill="#fff"/>
          <path id="Path_69" data-name="Path 69" d="M443.532,161.25a.963.963,0,0,1-.962-.962V148.661a.968.968,0,0,1,.379-.766l8.292-6.3a14.64,14.64,0,0,1,12.736-2.432l9.436,2.637a3.633,3.633,0,0,1,2.64,3.225l14.521-7.818a3.246,3.246,0,0,1,3.332,5.564L473.327,157.5a10.954,10.954,0,0,1-7.2,1.772L453.86,157.9,443.833,161.2A.981.981,0,0,1,443.532,161.25Zm16.55-21.98a13.992,13.992,0,0,0-8.453,2.833l-8.292,6.3a.325.325,0,0,0-.126.256v11.627a.32.32,0,0,0,.422.3l10.159-3.349.069.008L466.2,158.63a10.312,10.312,0,0,0,6.765-1.662l20.578-14.727a2.6,2.6,0,0,0-2.663-4.47l-15.52,8.355.051-.592a2.986,2.986,0,0,0-2.17-3.119l-9.436-2.636A13.812,13.812,0,0,0,460.082,139.271Zm-16.229,20.573V148.82l8.165-6.205a13.346,13.346,0,0,1,11.613-2.218l9.436,2.636a2.338,2.338,0,0,1,1.24,3.661l-.082.1a2.339,2.339,0,0,1-2.471.728c-3.43-1.052-8.027-2.147-10.449-1.4l-3.647,1.132a.321.321,0,0,0-.054.591.312.312,0,0,0,.244.022l3.647-1.132c1.766-.55,5.342-.053,10.07,1.4a2.989,2.989,0,0,0,3.125-.9l.09-.072,16.4-8.83a1.955,1.955,0,0,1,2.63.747,1.98,1.98,0,0,1-.634,2.631L472.6,156.439a9.638,9.638,0,0,1-6.331,1.553L453.794,156.6a.319.319,0,0,0-.136.014Zm.642-10.706v9.819L453.457,156a.949.949,0,0,1,.411-.042l12.47,1.394a8.984,8.984,0,0,0,5.9-1.444l20.578-14.727a1.339,1.339,0,0,0,.443-1.782,1.317,1.317,0,0,0-1.771-.5l-16.35,8.8a3.633,3.633,0,0,1-3.758,1.047c-4.606-1.411-8.047-1.908-9.692-1.4l-3.647,1.132a.962.962,0,0,1-.572-1.838l3.647-1.132c2.578-.8,7.311.317,10.827,1.4a1.7,1.7,0,0,0,1.793-.529.72.72,0,0,1,.085-.1,1.729,1.729,0,0,0,.239-.481,1.7,1.7,0,0,0-1.164-2.147l-9.436-2.636a12.7,12.7,0,0,0-11.051,2.111Z" transform="translate(-442.57 -136.813)" fill="#fff"/>
        </g>
      </g>
      <g id="Group_95" data-name="Group 95" transform="translate(29.62 0.841)">
        <g id="Group_94" data-name="Group 94">
          <path id="Path_70" data-name="Path 70" d="M489.881,143a.642.642,0,0,1-.312-1.2l8.873-4.91a8.779,8.779,0,0,1,7-.646l2.516.837a.641.641,0,1,1-.4,1.217l-2.515-.837a7.493,7.493,0,0,0-5.976.551l-8.873,4.91A.636.636,0,0,1,489.881,143Z" transform="translate(-488.917 -135.477)" fill="#fff"/>
          <path id="Path_71" data-name="Path 71" d="M489.7,143.144a.965.965,0,0,1-.843-.5.963.963,0,0,1,.376-1.308l8.873-4.909a9.1,9.1,0,0,1,7.259-.67l2.516.837a.963.963,0,0,1,.124,1.776.949.949,0,0,1-.733.05l-2.514-.837a7.168,7.168,0,0,0-5.718.528l-8.873,4.909A.959.959,0,0,1,489.7,143.144Zm12.8-7.2a8.445,8.445,0,0,0-4.086,1.052l-8.874,4.909a.321.321,0,0,0-.125.436.328.328,0,0,0,.436.125l8.873-4.909a7.815,7.815,0,0,1,6.232-.575l2.516.837a.309.309,0,0,0,.243-.017.316.316,0,0,0,.162-.187.322.322,0,0,0-.2-.405l-2.516-.837A8.421,8.421,0,0,0,502.5,135.939Z" transform="translate(-488.738 -135.298)" fill="#fff"/>
        </g>
      </g>
      <g id="Group_97" data-name="Group 97" transform="translate(24.018)">
        <g id="Group_96" data-name="Group 96">
          <path id="Path_72" data-name="Path 72" d="M481.149,140.967a.642.642,0,0,1-.311-1.2l7.112-3.939a10.641,10.641,0,0,1,7.668-1.039l2.313.558a.641.641,0,1,1-.3,1.247l-2.314-.558a9.366,9.366,0,0,0-6.745.914l-7.112,3.94A.64.64,0,0,1,481.149,140.967Z" transform="translate(-480.186 -134.167)" fill="#fff"/>
          <path id="Path_73" data-name="Path 73" d="M480.97,141.109a.962.962,0,0,1-.842-.5.963.963,0,0,1,.376-1.308l7.112-3.939a10.965,10.965,0,0,1,7.9-1.07l2.314.558a.962.962,0,0,1,.273,1.759.949.949,0,0,1-.726.112l-2.312-.558a9.041,9.041,0,0,0-6.515.883l-7.112,3.939A.964.964,0,0,1,480.97,141.109Zm11.963-6.479a10.318,10.318,0,0,0-5.007,1.3l-7.112,3.939a.322.322,0,0,0-.125.436.327.327,0,0,0,.436.125l7.112-3.939a9.68,9.68,0,0,1,6.976-.945l2.314.558a.311.311,0,0,0,.241-.037.326.326,0,0,0,.146-.2.322.322,0,0,0-.237-.386l-2.313-.558A10.407,10.407,0,0,0,492.933,134.629Z" transform="translate(-480.006 -133.988)" fill="#fff"/>
        </g>
      </g>
    </g>
    <g id="Group_114" data-name="Group 114" transform="translate(445.44 83.66)">
      <g id="Group_100" data-name="Group 100" transform="translate(0 0)">
        <g id="Group_99" data-name="Group 99">
          <path id="Path_74" data-name="Path 74" d="M486.19,112.157H454.92a1.926,1.926,0,0,1-1.925-1.925V90.5a1.926,1.926,0,0,1,1.925-1.925H486.19a1.927,1.927,0,0,1,1.925,1.925v19.735A1.927,1.927,0,0,1,486.19,112.157Zm-31.271-22.3a.642.642,0,0,0-.642.642v19.735a.642.642,0,0,0,.642.642H486.19a.642.642,0,0,0,.642-.642V90.5a.642.642,0,0,0-.642-.642Z" transform="translate(-452.674 -88.251)" fill="#fff"/>
          <path id="Path_75" data-name="Path 75" d="M486.011,112.3H454.74a2.248,2.248,0,0,1-2.245-2.245V90.317a2.248,2.248,0,0,1,2.245-2.245h31.271a2.248,2.248,0,0,1,2.245,2.245v19.735A2.248,2.248,0,0,1,486.011,112.3ZM454.74,88.714a1.605,1.605,0,0,0-1.6,1.6v19.735a1.605,1.605,0,0,0,1.6,1.6h31.271a1.605,1.605,0,0,0,1.6-1.6V90.317a1.605,1.605,0,0,0-1.6-1.6Zm31.271,22.3H454.74a.963.963,0,0,1-.962-.962V90.317a.963.963,0,0,1,.962-.962h31.271a.964.964,0,0,1,.962.962v19.735A.963.963,0,0,1,486.011,111.015ZM454.74,90a.321.321,0,0,0-.321.321v19.735a.321.321,0,0,0,.321.321h31.271a.321.321,0,0,0,.321-.321V90.317a.321.321,0,0,0-.321-.321Z" transform="translate(-452.495 -88.072)" fill="#fff"/>
        </g>
      </g>
      <g id="Group_102" data-name="Group 102" transform="translate(0 5.045)">
        <g id="Group_101" data-name="Group 101">
          <path id="Path_76" data-name="Path 76" d="M487.474,97.718H453.637a.642.642,0,0,1,0-1.283h33.837a.642.642,0,0,1,0,1.283Z" transform="translate(-452.674 -96.114)" fill="#fff"/>
          <path id="Path_77" data-name="Path 77" d="M487.294,97.86H453.457a.962.962,0,0,1,0-1.925h33.837a.962.962,0,0,1,0,1.925Zm-33.837-1.283a.321.321,0,1,0,0,.642h33.837a.321.321,0,0,0,0-.642Z" transform="translate(-452.495 -95.935)" fill="#fff"/>
        </g>
      </g>
      <g id="Group_104" data-name="Group 104" transform="translate(0 9.13)">
        <g id="Group_103" data-name="Group 103">
          <path id="Path_78" data-name="Path 78" d="M487.474,104.086H453.637a.642.642,0,0,1,0-1.283h33.837a.642.642,0,0,1,0,1.283Z" transform="translate(-452.674 -102.482)" fill="#fff"/>
          <path id="Path_79" data-name="Path 79" d="M487.294,104.228H453.457a.962.962,0,0,1,0-1.925h33.837a.962.962,0,0,1,0,1.925Zm-33.837-1.283a.321.321,0,1,0,0,.642h33.837a.321.321,0,0,0,0-.642Z" transform="translate(-452.495 -102.303)" fill="#fff"/>
        </g>
      </g>
      <g id="Group_106" data-name="Group 106" transform="translate(3.543 18.118)">
        <g id="Group_105" data-name="Group 105">
          <path id="Path_80" data-name="Path 80" d="M469.781,118.1H459.16a.642.642,0,1,1,0-1.283h10.622a.642.642,0,0,1,0,1.283Z" transform="translate(-458.197 -116.491)" fill="#fff"/>
          <path id="Path_81" data-name="Path 81" d="M469.6,118.237H458.98a.962.962,0,0,1,0-1.925H469.6a.962.962,0,1,1,0,1.925Zm-10.622-1.283a.321.321,0,1,0,0,.642H469.6a.321.321,0,1,0,0-.642Z" transform="translate(-458.018 -116.312)" fill="#fff"/>
        </g>
      </g>
      <g id="Group_108" data-name="Group 108" transform="translate(3.543 14.85)">
        <g id="Group_107" data-name="Group 107">
          <path id="Path_82" data-name="Path 82" d="M468.147,113H459.16a.642.642,0,1,1,0-1.283h8.988a.642.642,0,0,1,0,1.283Z" transform="translate(-458.197 -111.397)" fill="#fff"/>
          <path id="Path_83" data-name="Path 83" d="M467.968,113.143H458.98a.962.962,0,0,1,0-1.925h8.988a.962.962,0,0,1,0,1.925Zm-8.988-1.283a.321.321,0,1,0,0,.642h8.988a.321.321,0,0,0,0-.642Z" transform="translate(-458.018 -111.218)" fill="#fff"/>
        </g>
      </g>
      <g id="Group_113" data-name="Group 113" transform="translate(18.341 11.922)">
        <g id="Group_110" data-name="Group 110">
          <g id="Group_109" data-name="Group 109">
            <path id="Path_84" data-name="Path 84" d="M485.839,115.668a4.257,4.257,0,1,1,4.257-4.256A4.262,4.262,0,0,1,485.839,115.668Zm0-7.23a2.973,2.973,0,1,0,2.974,2.974A2.977,2.977,0,0,0,485.839,108.438Z" transform="translate(-481.261 -106.834)" fill="#fff"/>
            <path id="Path_85" data-name="Path 85" d="M485.66,115.81a4.577,4.577,0,1,1,4.578-4.577A4.582,4.582,0,0,1,485.66,115.81Zm0-8.513a3.936,3.936,0,1,0,3.936,3.936A3.94,3.94,0,0,0,485.66,107.3Zm0,7.23a3.294,3.294,0,1,1,3.294-3.294A3.3,3.3,0,0,1,485.66,114.526Zm0-5.947a2.653,2.653,0,1,0,2.653,2.653A2.656,2.656,0,0,0,485.66,108.58Z" transform="translate(-481.082 -106.655)" fill="#fff"/>
          </g>
        </g>
        <g id="Group_112" data-name="Group 112" transform="translate(5.821)">
          <g id="Group_111" data-name="Group 111">
            <path id="Path_86" data-name="Path 86" d="M493.512,115.668a4.22,4.22,0,0,1-2.609-.892.642.642,0,0,1,.787-1.014,2.944,2.944,0,0,0,1.821.622,2.973,2.973,0,1,0,0-5.947,2.944,2.944,0,0,0-1.819.622.642.642,0,0,1-.786-1.014,4.217,4.217,0,0,1,2.605-.89,4.257,4.257,0,1,1,0,8.513Z" transform="translate(-490.334 -106.834)" fill="#fff"/>
            <path id="Path_87" data-name="Path 87" d="M493.333,115.81a4.537,4.537,0,0,1-2.8-.959.962.962,0,1,1,1.18-1.521,2.626,2.626,0,0,0,1.624.555,2.653,2.653,0,1,0,0-5.305,2.626,2.626,0,0,0-1.623.555.962.962,0,1,1-1.179-1.522,4.532,4.532,0,0,1,2.8-.958,4.577,4.577,0,1,1,0,9.155Zm-2.214-2.04a.322.322,0,0,0-.255.124.322.322,0,0,0,.057.45,3.936,3.936,0,1,0,0-6.224.321.321,0,1,0,.393.507,3.26,3.26,0,0,1,2.016-.689,3.294,3.294,0,1,1,0,6.588,3.265,3.265,0,0,1-2.018-.69A.316.316,0,0,0,491.119,113.769Z" transform="translate(-490.155 -106.655)" fill="#fff"/>
          </g>
        </g>
      </g>
    </g>
  </g>
</svg>
