<svg xmlns="http://www.w3.org/2000/svg" width="74" height="59.775" viewBox="0 0 74 59.775">
  <g id="Group_193" data-name="Group 193" transform="translate(-554.885 -84.48)">
    <g id="Group_162" data-name="Group 162" transform="translate(588.804 86.438)">
      <g id="Group_159" data-name="Group 159" transform="translate(1.85)">
        <g id="Group_158" data-name="Group 158">
          <path id="Path_121" data-name="Path 121" d="M604.1,92.8a.745.745,0,0,1-.746-.746v-3.7a.746.746,0,1,1,1.491,0v3.7A.745.745,0,0,1,604.1,92.8Z" transform="translate(-602.983 -87.233)" fill="#fff"/>
          <path id="Path_122" data-name="Path 122" d="M603.974,93.042a1.119,1.119,0,0,1-1.118-1.118v-3.7a1.118,1.118,0,0,1,2.237,0v3.7A1.119,1.119,0,0,1,603.974,93.042Zm0-5.19a.373.373,0,0,0-.373.373v3.7a.373.373,0,0,0,.746,0v-3.7A.374.374,0,0,0,603.974,87.852Z" transform="translate(-602.856 -87.106)" fill="#fff"/>
        </g>
      </g>
      <g id="Group_161" data-name="Group 161" transform="translate(0 1.85)">
        <g id="Group_160" data-name="Group 160">
          <path id="Path_123" data-name="Path 123" d="M605.32,91.578h-3.7a.746.746,0,0,1,0-1.491h3.7a.746.746,0,1,1,0,1.491Z" transform="translate(-600.502 -89.714)" fill="#fff"/>
          <path id="Path_124" data-name="Path 124" d="M605.193,91.824h-3.7a1.118,1.118,0,1,1,0-2.237h3.7a1.118,1.118,0,0,1,0,2.237Zm-3.7-1.491a.373.373,0,1,0,0,.746h3.7a.373.373,0,0,0,0-.746Z" transform="translate(-600.375 -89.587)" fill="#fff"/>
        </g>
      </g>
    </g>
    <g id="Group_167" data-name="Group 167" transform="translate(559.746 90.137)">
      <g id="Group_164" data-name="Group 164" transform="translate(1.849)">
        <g id="Group_163" data-name="Group 163">
          <path id="Path_125" data-name="Path 125" d="M565.13,97.757a.745.745,0,0,1-.746-.746v-3.7a.746.746,0,1,1,1.491,0v3.7A.745.745,0,0,1,565.13,97.757Z" transform="translate(-564.011 -92.194)" fill="#fff"/>
          <path id="Path_126" data-name="Path 126" d="M565,98a1.12,1.12,0,0,1-1.118-1.118v-3.7a1.118,1.118,0,1,1,2.237,0v3.7A1.12,1.12,0,0,1,565,98Zm0-5.19a.373.373,0,0,0-.373.373v3.7a.373.373,0,1,0,.746,0v-3.7A.373.373,0,0,0,565,92.813Z" transform="translate(-563.884 -92.067)" fill="#fff"/>
        </g>
      </g>
      <g id="Group_166" data-name="Group 166" transform="translate(0 1.85)">
        <g id="Group_165" data-name="Group 165">
          <path id="Path_127" data-name="Path 127" d="M566.349,96.539h-3.7a.746.746,0,0,1,0-1.491h3.7a.746.746,0,1,1,0,1.491Z" transform="translate(-561.531 -94.675)" fill="#fff"/>
          <path id="Path_128" data-name="Path 128" d="M566.222,96.785h-3.7a1.118,1.118,0,1,1,0-2.237h3.7a1.118,1.118,0,1,1,0,2.237Zm-3.7-1.491a.373.373,0,1,0,0,.746h3.7a.373.373,0,0,0,0-.746Z" transform="translate(-561.404 -94.548)" fill="#fff"/>
        </g>
      </g>
    </g>
    <g id="Group_172" data-name="Group 172" transform="translate(619.498 88.288)">
      <g id="Group_169" data-name="Group 169" transform="translate(1.85)">
        <g id="Group_168" data-name="Group 168">
          <path id="Path_129" data-name="Path 129" d="M645.266,95.277a.745.745,0,0,1-.746-.746v-3.7a.746.746,0,0,1,1.491,0v3.7A.745.745,0,0,1,645.266,95.277Z" transform="translate(-644.147 -89.714)" fill="#fff"/>
          <path id="Path_130" data-name="Path 130" d="M645.138,95.523A1.12,1.12,0,0,1,644.02,94.4v-3.7a1.118,1.118,0,1,1,2.237,0v3.7A1.12,1.12,0,0,1,645.138,95.523Zm0-5.19a.373.373,0,0,0-.373.373v3.7a.373.373,0,1,0,.746,0v-3.7A.373.373,0,0,0,645.138,90.333Z" transform="translate(-644.02 -89.587)" fill="#fff"/>
        </g>
      </g>
      <g id="Group_171" data-name="Group 171" transform="translate(0 1.849)">
        <g id="Group_170" data-name="Group 170">
          <path id="Path_131" data-name="Path 131" d="M646.484,94.058h-3.7a.746.746,0,0,1,0-1.491h3.7a.746.746,0,1,1,0,1.491Z" transform="translate(-641.666 -92.194)" fill="#fff"/>
          <path id="Path_132" data-name="Path 132" d="M646.357,94.3h-3.7a1.118,1.118,0,1,1,0-2.237h3.7a1.118,1.118,0,1,1,0,2.237Zm-3.7-1.491a.373.373,0,0,0,0,.746h3.7a.373.373,0,1,0,0-.746Z" transform="translate(-641.539 -92.067)" fill="#fff"/>
        </g>
      </g>
    </g>
    <g id="Group_174" data-name="Group 174" transform="translate(573.494 84.589)">
      <g id="Group_173" data-name="Group 173" transform="translate(0)">
        <path id="Path_133" data-name="Path 133" d="M582.688,89.817a2.345,2.345,0,1,1,2.345-2.346A2.348,2.348,0,0,1,582.688,89.817Zm0-3.2a.854.854,0,1,0,.854.854A.855.855,0,0,0,582.688,86.617Z" transform="translate(-579.969 -84.753)" fill="#fff"/>
        <path id="Path_134" data-name="Path 134" d="M582.561,90.062a2.718,2.718,0,1,1,2.718-2.719A2.722,2.722,0,0,1,582.561,90.062Zm0-4.691a1.973,1.973,0,1,0,1.972,1.972A1.975,1.975,0,0,0,582.561,85.372Zm0,3.2a1.227,1.227,0,1,1,1.227-1.227A1.228,1.228,0,0,1,582.561,88.571Zm0-1.708a.481.481,0,1,0,.481.481A.482.482,0,0,0,582.561,86.863Z" transform="translate(-579.842 -84.626)" fill="#fff"/>
      </g>
    </g>
    <g id="Group_176" data-name="Group 176" transform="translate(605.438 84.48)">
      <g id="Group_175" data-name="Group 175" transform="translate(0)">
        <path id="Path_135" data-name="Path 135" d="M625.528,89.671a2.345,2.345,0,1,1,2.345-2.345A2.348,2.348,0,0,1,625.528,89.671Zm0-3.2a.854.854,0,1,0,.854.855A.855.855,0,0,0,625.528,86.471Z" transform="translate(-622.809 -84.607)" fill="#fff"/>
        <path id="Path_136" data-name="Path 136" d="M625.4,89.916a2.718,2.718,0,1,1,2.718-2.718A2.721,2.721,0,0,1,625.4,89.916Zm0-4.691a1.973,1.973,0,1,0,1.972,1.973A1.975,1.975,0,0,0,625.4,85.226Zm0,3.2a1.227,1.227,0,1,1,1.227-1.227A1.228,1.228,0,0,1,625.4,88.425Zm0-1.708a.481.481,0,1,0,.481.482A.482.482,0,0,0,625.4,86.717Z" transform="translate(-622.682 -84.48)" fill="#fff"/>
      </g>
    </g>
    <g id="Group_178" data-name="Group 178" transform="translate(574.826 116.233)">
      <g id="Group_177" data-name="Group 177" transform="translate(0)">
        <path id="Path_137" data-name="Path 137" d="M590.408,139.615h-7.534a.746.746,0,0,1-.746-.746V128.311a.746.746,0,0,1,.746-.746h7.534a.745.745,0,0,1,.746.746V138.87A.745.745,0,0,1,590.408,139.615Zm-6.788-1.491h6.043v-9.068h-6.043Z" transform="translate(-581.755 -127.192)" fill="#fff"/>
        <path id="Path_138" data-name="Path 138" d="M590.28,139.861h-7.534a1.12,1.12,0,0,1-1.119-1.118V128.183a1.12,1.12,0,0,1,1.119-1.118h7.534a1.12,1.12,0,0,1,1.119,1.118v10.559A1.12,1.12,0,0,1,590.28,139.861Zm-7.534-12.05a.374.374,0,0,0-.373.373v10.559a.373.373,0,0,0,.373.373h7.534a.374.374,0,0,0,.373-.373V128.183a.374.374,0,0,0-.373-.373Zm7.161,10.559h-6.788v-9.813h6.788Zm-6.043-.746h5.3V129.3h-5.3Z" transform="translate(-581.628 -127.065)" fill="#fff"/>
      </g>
    </g>
    <g id="Group_180" data-name="Group 180" transform="translate(586.847 111.583)">
      <g id="Group_179" data-name="Group 179" transform="translate(0)">
        <path id="Path_139" data-name="Path 139" d="M606.53,138.029H599a.746.746,0,0,1-.746-.746v-15.21a.745.745,0,0,1,.746-.746h7.534a.745.745,0,0,1,.746.746v15.21A.745.745,0,0,1,606.53,138.029Zm-6.788-1.491h6.043V122.819h-6.043Z" transform="translate(-597.877 -120.955)" fill="#fff"/>
        <path id="Path_140" data-name="Path 140" d="M606.4,138.275h-7.534a1.12,1.12,0,0,1-1.118-1.118v-15.21a1.119,1.119,0,0,1,1.118-1.118H606.4a1.119,1.119,0,0,1,1.118,1.118v15.21A1.12,1.12,0,0,1,606.4,138.275Zm-7.534-16.7a.373.373,0,0,0-.373.373v15.21a.373.373,0,0,0,.373.373H606.4a.373.373,0,0,0,.373-.373v-15.21a.373.373,0,0,0-.373-.373Zm7.161,15.21h-6.788V122.319h6.788Zm-6.043-.746h5.3V123.065h-5.3Z" transform="translate(-597.75 -120.828)" fill="#fff"/>
      </g>
    </g>
    <g id="Group_182" data-name="Group 182" transform="translate(596.235 92.664)">
      <g id="Group_181" data-name="Group 181">
        <path id="Path_141" data-name="Path 141" d="M621.753,131.569h-7.534a.746.746,0,0,1-.746-.746V104.941h-1.888a.746.746,0,0,1-.568-1.228l6.4-7.531a.771.771,0,0,1,1.136,0l6.4,7.531a.746.746,0,0,1-.568,1.228H622.5v25.883A.745.745,0,0,1,621.753,131.569Zm-6.788-1.491h6.043V104.2a.745.745,0,0,1,.746-.746h1.021l-4.789-5.634L613.2,103.45h1.021a.745.745,0,0,1,.746.746Z" transform="translate(-610.468 -95.576)" fill="#fff"/>
        <path id="Path_142" data-name="Path 142" d="M621.626,131.821h-7.534a1.12,1.12,0,0,1-1.118-1.118v-25.51h-1.515a1.118,1.118,0,0,1-.852-1.843l6.4-7.53a1.18,1.18,0,0,1,1.7,0l6.4,7.53a1.118,1.118,0,0,1-.852,1.842h-1.515V130.7A1.12,1.12,0,0,1,621.626,131.821Zm-3.767-35.637a.372.372,0,0,0-.283.118l-6.4,7.531a.373.373,0,0,0,.284.614h2.261V130.7a.373.373,0,0,0,.373.373h7.534A.373.373,0,0,0,622,130.7V104.447h2.261a.373.373,0,0,0,.284-.614l-6.4-7.531A.372.372,0,0,0,617.859,96.184Zm3.394,34.146h-6.788V104.074a.373.373,0,0,0-.373-.373h-1.828l5.595-6.582,5.595,6.582h-1.828a.373.373,0,0,0-.373.373Zm-6.043-.746h5.3v-25.51a1.12,1.12,0,0,1,1.118-1.118h.216l-3.982-4.686-3.983,4.686h.216a1.119,1.119,0,0,1,1.118,1.118Z" transform="translate(-610.341 -95.455)" fill="#fff"/>
      </g>
    </g>
    <g id="Group_184" data-name="Group 184" transform="translate(554.885 134.944)">
      <g id="Group_183" data-name="Group 183">
        <path id="Path_143" data-name="Path 143" d="M620.82,161.224H563.2a7.829,7.829,0,0,1-7.82-7.82.745.745,0,0,1,.746-.746h71.763a.745.745,0,0,1,.746.746A7.829,7.829,0,0,1,620.82,161.224Zm-63.9-7.075a6.338,6.338,0,0,0,6.284,5.583H620.82a6.338,6.338,0,0,0,6.285-5.583Z" transform="translate(-555.012 -152.285)" fill="#fff"/>
        <path id="Path_144" data-name="Path 144" d="M620.693,161.47H563.077a8.2,8.2,0,0,1-8.192-8.193A1.12,1.12,0,0,1,556,152.158h71.763a1.12,1.12,0,0,1,1.119,1.118A8.2,8.2,0,0,1,620.693,161.47ZM556,152.9a.373.373,0,0,0-.373.373,7.456,7.456,0,0,0,7.447,7.448h57.615a7.455,7.455,0,0,0,7.447-7.448.373.373,0,0,0-.373-.373Zm64.689,7.075H563.077a6.7,6.7,0,0,1-6.654-5.912l-.05-.417H627.4l-.049.417A6.7,6.7,0,0,1,620.693,159.978Zm-63.465-5.583a5.955,5.955,0,0,0,5.85,4.838h57.615a5.955,5.955,0,0,0,5.851-4.838Z" transform="translate(-554.885 -152.158)" fill="#fff"/>
      </g>
    </g>
    <g id="Group_186" data-name="Group 186" transform="translate(586.138 137.439)">
      <g id="Group_185" data-name="Group 185" transform="translate(0 0)">
        <path id="Path_145" data-name="Path 145" d="M607.094,157.5h-9.049a.746.746,0,1,1,0-1.491h9.049a.746.746,0,0,1,0,1.491Z" transform="translate(-596.926 -155.632)" fill="#fff"/>
        <path id="Path_146" data-name="Path 146" d="M606.967,157.742h-9.049a1.118,1.118,0,0,1,0-2.237h9.049a1.118,1.118,0,0,1,0,2.237Zm-9.049-1.491a.373.373,0,1,0,0,.746h9.049a.373.373,0,0,0,0-.746Z" transform="translate(-596.799 -155.505)" fill="#fff"/>
      </g>
    </g>
    <g id="Group_188" data-name="Group 188" transform="translate(596.235 92.664)">
      <g id="Group_187" data-name="Group 187">
        <path id="Path_147" data-name="Path 147" d="M621.753,131.569h-7.534a.746.746,0,0,1-.746-.746V104.941h-1.888a.746.746,0,0,1-.568-1.228l6.4-7.531a.771.771,0,0,1,1.136,0l6.4,7.531a.746.746,0,0,1-.568,1.228H622.5v25.883A.745.745,0,0,1,621.753,131.569Zm-6.788-1.491h6.043V104.2a.745.745,0,0,1,.746-.746h1.021l-4.789-5.634L613.2,103.45h1.021a.745.745,0,0,1,.746.746Z" transform="translate(-610.468 -95.576)" fill="#fff"/>
        <path id="Path_148" data-name="Path 148" d="M621.626,131.821h-7.534a1.12,1.12,0,0,1-1.118-1.118v-25.51h-1.515a1.118,1.118,0,0,1-.852-1.843l6.4-7.53a1.18,1.18,0,0,1,1.7,0l6.4,7.53a1.118,1.118,0,0,1-.852,1.842h-1.515V130.7A1.12,1.12,0,0,1,621.626,131.821Zm-3.767-35.637a.372.372,0,0,0-.283.118l-6.4,7.531a.373.373,0,0,0,.284.614h2.261V130.7a.373.373,0,0,0,.373.373h7.534A.373.373,0,0,0,622,130.7V104.447h2.261a.373.373,0,0,0,.284-.614l-6.4-7.531A.372.372,0,0,0,617.859,96.184Zm3.394,34.146h-6.788V104.074a.373.373,0,0,0-.373-.373h-1.828l5.595-6.582,5.595,6.582h-1.828a.373.373,0,0,0-.373.373Zm-6.043-.746h5.3v-25.51a1.12,1.12,0,0,1,1.118-1.118h.216l-3.982-4.686-3.983,4.686h.216a1.119,1.119,0,0,1,1.118,1.118Z" transform="translate(-610.341 -95.455)" fill="#fff"/>
      </g>
    </g>
    <g id="Group_190" data-name="Group 190" transform="translate(565.397 102.784)">
      <g id="Group_189" data-name="Group 189" transform="translate(0)">
        <path id="Path_149" data-name="Path 149" d="M621.1,143.179H570.229a.745.745,0,0,1-.746-.746v-32.16a.745.745,0,0,1,.746-.746H603.7a.745.745,0,0,1,.746.746v23.263h6.043V110.274a.745.745,0,0,1,.746-.746H621.1a.746.746,0,0,1,.746.746v32.16A.746.746,0,0,1,621.1,143.179Zm-50.122-1.491h49.377V111.019h-8.371v23.263a.745.745,0,0,1-.746.746H603.7a.746.746,0,0,1-.746-.746V111.019h-31.98Z" transform="translate(-569.11 -109.155)" fill="#fff"/>
        <path id="Path_150" data-name="Path 150" d="M620.969,143.425H570.1a1.12,1.12,0,0,1-1.118-1.118v-32.16a1.12,1.12,0,0,1,1.118-1.118h33.471a1.119,1.119,0,0,1,1.118,1.118v22.89h5.3v-22.89a1.12,1.12,0,0,1,1.118-1.118h9.863a1.12,1.12,0,0,1,1.118,1.118v32.16A1.12,1.12,0,0,1,620.969,143.425ZM570.1,109.774a.373.373,0,0,0-.373.373v32.16a.373.373,0,0,0,.373.373h50.868a.373.373,0,0,0,.373-.373v-32.16a.373.373,0,0,0-.373-.373h-9.863a.373.373,0,0,0-.373.373v23.635h-6.788V110.146a.373.373,0,0,0-.373-.373Zm50.5,32.16H570.474V110.519H603.2v23.635a.373.373,0,0,0,.373.373h7.534a.373.373,0,0,0,.373-.373V110.519H620.6Zm-49.377-.746h48.631V111.265h-7.626v22.89a1.12,1.12,0,0,1-1.118,1.118h-7.534a1.12,1.12,0,0,1-1.118-1.118v-22.89H571.22Z" transform="translate(-568.983 -109.028)" fill="#fff"/>
      </g>
    </g>
    <g id="Group_192" data-name="Group 192" transform="translate(560.11 97.189)">
      <g id="Group_191" data-name="Group 191" transform="translate(0)">
        <path id="Path_151" data-name="Path 151" d="M624.451,141.27H563.138a.745.745,0,0,1-.746-.746V105.786a3.766,3.766,0,0,1,3.762-3.762h35.637a.746.746,0,0,1,.568,1.228L600.875,105H601.9a.745.745,0,0,1,.746.746v25.883h6.043V105.745a.745.745,0,0,1,.746-.746h1.022l-1.485-1.747a.745.745,0,0,1,.568-1.228h11.9a3.766,3.766,0,0,1,3.762,3.762v34.739A.745.745,0,0,1,624.451,141.27Zm-60.568-1.491h59.822V105.786a2.273,2.273,0,0,0-2.271-2.27H611.147l1.485,1.747a.746.746,0,0,1-.568,1.228h-1.888v25.883a.745.745,0,0,1-.746.746H601.9a.746.746,0,0,1-.746-.746V106.49h-1.888a.746.746,0,0,1-.568-1.228l1.485-1.747H566.154a2.273,2.273,0,0,0-2.271,2.27Z" transform="translate(-562.019 -101.651)" fill="#fff"/>
        <path id="Path_152" data-name="Path 152" d="M624.324,141.516H563.01a1.12,1.12,0,0,1-1.118-1.118V105.659a4.14,4.14,0,0,1,4.135-4.135h35.637a1.119,1.119,0,0,1,.852,1.843l-.963,1.132h.215a1.119,1.119,0,0,1,1.118,1.118v25.51h5.3v-25.51A1.12,1.12,0,0,1,609.3,104.5h.216l-.963-1.133a1.118,1.118,0,0,1,.852-1.842h11.9a4.14,4.14,0,0,1,4.135,4.135V140.4A1.119,1.119,0,0,1,624.324,141.516Zm-58.3-39.246a3.393,3.393,0,0,0-3.39,3.389V140.4a.373.373,0,0,0,.373.373h61.314a.373.373,0,0,0,.373-.373V105.659a3.393,3.393,0,0,0-3.389-3.389h-11.9a.372.372,0,0,0-.284.614l2.006,2.361H609.3a.373.373,0,0,0-.373.373v26.256h-6.788V105.618a.373.373,0,0,0-.373-.373h-1.828l2.007-2.361a.373.373,0,0,0-.284-.614Zm57.924,37.755H563.383V105.659a2.647,2.647,0,0,1,2.644-2.643h34.831l-2.007,2.361a.373.373,0,0,0,.284.614H601.4v26.256a.373.373,0,0,0,.373.373H609.3a.373.373,0,0,0,.373-.373V105.99h2.261a.373.373,0,0,0,.284-.614l-2.007-2.361h11.094a2.646,2.646,0,0,1,2.643,2.643Zm-59.822-.746h59.077v-33.62a1.9,1.9,0,0,0-1.9-1.9h-9.482l.963,1.133a1.118,1.118,0,0,1-.852,1.842h-1.515v25.51a1.12,1.12,0,0,1-1.119,1.118h-7.534a1.12,1.12,0,0,1-1.118-1.118v-25.51h-1.515a1.118,1.118,0,0,1-.852-1.843l.963-1.132H566.027a1.9,1.9,0,0,0-1.9,1.9Z" transform="translate(-561.892 -101.524)" fill="#fff"/>
      </g>
    </g>
  </g>
</svg>
