<svg xmlns="http://www.w3.org/2000/svg" width="57.775" height="63.785" viewBox="0 0 57.775 63.785">
  <g id="Group_157" data-name="Group 157" transform="translate(-308.687 -328.167)">
    <g id="Group_120" data-name="Group 120" transform="translate(323.641 328.167)">
      <g id="Group_117" data-name="Group 117" transform="translate(1.771)">
        <g id="Group_116" data-name="Group 116">
          <path id="Path_88" data-name="Path 88" d="M334.594,333.562a.676.676,0,0,1-.676-.676v-3.542a.676.676,0,1,1,1.353,0v3.542A.676.676,0,0,1,334.594,333.562Z" transform="translate(-333.58 -328.329)" fill="#fff"/>
          <path id="Path_89" data-name="Path 89" d="M334.432,333.738a1.016,1.016,0,0,1-1.014-1.014v-3.542a1.014,1.014,0,0,1,2.029,0v3.542A1.016,1.016,0,0,1,334.432,333.738Zm0-4.895a.339.339,0,0,0-.338.338v3.542a.338.338,0,0,0,.676,0v-3.542A.339.339,0,0,0,334.432,328.843Z" transform="translate(-333.418 -328.167)" fill="#fff"/>
        </g>
      </g>
      <g id="Group_119" data-name="Group 119" transform="translate(0 1.771)">
        <g id="Group_118" data-name="Group 118">
          <path id="Path_90" data-name="Path 90" d="M335.518,332.639h-3.542a.676.676,0,0,1,0-1.353h3.542a.676.676,0,1,1,0,1.353Z" transform="translate(-330.961 -330.948)" fill="#fff"/>
          <path id="Path_91" data-name="Path 91" d="M335.356,332.815h-3.542a1.014,1.014,0,1,1,0-2.029h3.542a1.014,1.014,0,0,1,0,2.029Zm-3.542-1.353a.338.338,0,1,0,0,.676h3.542a.338.338,0,1,0,0-.676Z" transform="translate(-330.799 -330.786)" fill="#fff"/>
        </g>
      </g>
    </g>
    <g id="Group_125" data-name="Group 125" transform="translate(346.3 328.167)">
      <g id="Group_122" data-name="Group 122" transform="translate(1.771)">
        <g id="Group_121" data-name="Group 121">
          <path id="Path_92" data-name="Path 92" d="M368.1,333.562a.676.676,0,0,1-.676-.676v-3.542a.676.676,0,1,1,1.353,0v3.542A.676.676,0,0,1,368.1,333.562Z" transform="translate(-367.087 -328.329)" fill="#fff"/>
          <path id="Path_93" data-name="Path 93" d="M367.939,333.738a1.016,1.016,0,0,1-1.014-1.014v-3.542a1.014,1.014,0,0,1,2.029,0v3.542A1.016,1.016,0,0,1,367.939,333.738Zm0-4.895a.339.339,0,0,0-.338.338v3.542a.338.338,0,0,0,.676,0v-3.542A.339.339,0,0,0,367.939,328.843Z" transform="translate(-366.925 -328.167)" fill="#fff"/>
        </g>
      </g>
      <g id="Group_124" data-name="Group 124" transform="translate(0 1.771)">
        <g id="Group_123" data-name="Group 123">
          <path id="Path_94" data-name="Path 94" d="M369.025,332.639h-3.542a.676.676,0,1,1,0-1.353h3.542a.676.676,0,1,1,0,1.353Z" transform="translate(-364.468 -330.948)" fill="#fff"/>
          <path id="Path_95" data-name="Path 95" d="M368.863,332.815H365.32a1.014,1.014,0,0,1,0-2.029h3.542a1.014,1.014,0,0,1,0,2.029Zm-3.542-1.353a.338.338,0,1,0,0,.676h3.542a.338.338,0,1,0,0-.676Z" transform="translate(-364.306 -330.786)" fill="#fff"/>
        </g>
      </g>
    </g>
    <g id="Group_127" data-name="Group 127" transform="translate(313.181 333.128)">
      <g id="Group_126" data-name="Group 126" transform="translate(0 0)">
        <path id="Path_96" data-name="Path 96" d="M318.041,340.42a2.208,2.208,0,1,1,2.209-2.208A2.211,2.211,0,0,1,318.041,340.42Zm0-3.064a.856.856,0,1,0,.856.856A.857.857,0,0,0,318.041,337.356Z" transform="translate(-315.494 -335.665)" fill="#fff"/>
        <path id="Path_97" data-name="Path 97" d="M317.879,340.6a2.546,2.546,0,1,1,2.547-2.546A2.55,2.55,0,0,1,317.879,340.6Zm0-4.417a1.87,1.87,0,1,0,1.871,1.871A1.872,1.872,0,0,0,317.879,336.179Zm0,3.064a1.194,1.194,0,1,1,1.194-1.194A1.2,1.2,0,0,1,317.879,339.243Zm0-1.712a.518.518,0,1,0,.518.518A.519.519,0,0,0,317.879,337.532Z" transform="translate(-315.332 -335.503)" fill="#fff"/>
      </g>
    </g>
    <g id="Group_129" data-name="Group 129" transform="translate(335.79 333.128)">
      <g id="Group_128" data-name="Group 128" transform="translate(0 0)">
        <path id="Path_98" data-name="Path 98" d="M351.473,340.42a2.208,2.208,0,1,1,2.208-2.208A2.211,2.211,0,0,1,351.473,340.42Zm0-3.064a.856.856,0,1,0,.855.856A.856.856,0,0,0,351.473,337.356Z" transform="translate(-348.926 -335.665)" fill="#fff"/>
        <path id="Path_99" data-name="Path 99" d="M351.311,340.6a2.546,2.546,0,1,1,2.546-2.546A2.549,2.549,0,0,1,351.311,340.6Zm0-4.417a1.87,1.87,0,1,0,1.87,1.871A1.872,1.872,0,0,0,351.311,336.179Zm0,3.064a1.194,1.194,0,1,1,1.194-1.194A1.2,1.2,0,0,1,351.311,339.243Zm0-1.712a.518.518,0,1,0,.517.518A.519.519,0,0,0,351.311,337.532Z" transform="translate(-348.764 -335.503)" fill="#fff"/>
      </g>
    </g>
    <g id="Group_131" data-name="Group 131" transform="translate(355.029 333.128)">
      <g id="Group_130" data-name="Group 130" transform="translate(0 0)">
        <path id="Path_100" data-name="Path 100" d="M379.923,340.42a2.208,2.208,0,1,1,2.208-2.208A2.211,2.211,0,0,1,379.923,340.42Zm0-3.064a.856.856,0,1,0,.855.856A.857.857,0,0,0,379.923,337.356Z" transform="translate(-377.376 -335.665)" fill="#fff"/>
        <path id="Path_101" data-name="Path 101" d="M379.761,340.6a2.546,2.546,0,1,1,2.546-2.546A2.55,2.55,0,0,1,379.761,340.6Zm0-4.417a1.87,1.87,0,1,0,1.87,1.871A1.872,1.872,0,0,0,379.761,336.179Zm0,3.064a1.194,1.194,0,1,1,1.194-1.194A1.2,1.2,0,0,1,379.761,339.243Zm0-1.712a.518.518,0,1,0,.517.518A.519.519,0,0,0,379.761,337.532Z" transform="translate(-377.214 -335.503)" fill="#fff"/>
      </g>
    </g>
    <g id="Group_142" data-name="Group 142" transform="translate(323.922 353.068)">
      <g id="Group_133" data-name="Group 133" transform="translate(0)">
        <g id="Group_132" data-name="Group 132">
          <path id="Path_102" data-name="Path 102" d="M345.029,392.116A13.314,13.314,0,1,1,358.342,378.8,13.329,13.329,0,0,1,345.029,392.116Zm0-25.275A11.961,11.961,0,1,0,356.99,378.8,11.975,11.975,0,0,0,345.029,366.841Z" transform="translate(-331.377 -365.15)" fill="#fff"/>
          <path id="Path_103" data-name="Path 103" d="M344.867,392.292a13.652,13.652,0,1,1,13.651-13.652A13.667,13.667,0,0,1,344.867,392.292Zm0-26.628a12.976,12.976,0,1,0,12.975,12.976A12.991,12.991,0,0,0,344.867,365.664Zm0,25.275a12.3,12.3,0,1,1,12.3-12.3A12.314,12.314,0,0,1,344.867,390.94Zm0-23.923A11.623,11.623,0,1,0,356.49,378.64,11.637,11.637,0,0,0,344.867,367.017Z" transform="translate(-331.215 -364.988)" fill="#fff"/>
        </g>
      </g>
      <g id="Group_135" data-name="Group 135" transform="translate(5.756)">
        <g id="Group_134" data-name="Group 134">
          <path id="Path_104" data-name="Path 104" d="M347.785,392.116c-4.238,0-7.559-5.848-7.559-13.314s3.32-13.314,7.559-13.314,7.557,5.848,7.557,13.314S352.022,392.116,347.785,392.116Zm0-25.275c-3.364,0-6.206,5.478-6.206,11.962s2.842,11.961,6.206,11.961,6.2-5.477,6.2-11.961S351.148,366.841,347.785,366.841Z" transform="translate(-339.888 -365.15)" fill="#fff"/>
          <path id="Path_105" data-name="Path 105" d="M347.623,392.292c-4.428,0-7.9-6-7.9-13.652s3.469-13.652,7.9-13.652,7.9,6,7.9,13.652S352.05,392.292,347.623,392.292Zm0-26.628c-4.049,0-7.22,5.7-7.22,12.976s3.172,12.976,7.22,12.976,7.219-5.7,7.219-12.976S351.671,365.664,347.623,365.664Zm0,25.275c-3.547,0-6.544-5.633-6.544-12.3s3-12.3,6.544-12.3,6.543,5.633,6.543,12.3S351.17,390.94,347.623,390.94Zm0-23.923c-3.18,0-5.868,5.323-5.868,11.624s2.687,11.623,5.868,11.623,5.867-5.323,5.867-11.623S350.8,367.017,347.623,367.017Z" transform="translate(-339.726 -364.988)" fill="#fff"/>
        </g>
      </g>
      <g id="Group_137" data-name="Group 137" transform="translate(0.561 8.845)">
        <g id="Group_136" data-name="Group 136">
          <path id="Path_106" data-name="Path 106" d="M357.109,379.92H333.22a.676.676,0,0,1,0-1.353h23.889a.676.676,0,0,1,0,1.353Z" transform="translate(-332.206 -378.229)" fill="#fff"/>
          <path id="Path_107" data-name="Path 107" d="M356.947,380.1H333.058a1.014,1.014,0,0,1,0-2.029h23.889a1.014,1.014,0,0,1,0,2.029Zm-23.889-1.353a.338.338,0,1,0,0,.676h23.889a.338.338,0,0,0,0-.676Z" transform="translate(-332.044 -378.067)" fill="#fff"/>
        </g>
      </g>
      <g id="Group_139" data-name="Group 139" transform="translate(0.561 16.609)">
        <g id="Group_138" data-name="Group 138">
          <path id="Path_108" data-name="Path 108" d="M357.109,391.4H333.22a.676.676,0,1,1,0-1.353h23.889a.676.676,0,1,1,0,1.353Z" transform="translate(-332.206 -389.71)" fill="#fff"/>
          <path id="Path_109" data-name="Path 109" d="M356.947,391.577H333.058a1.014,1.014,0,1,1,0-2.029h23.889a1.014,1.014,0,1,1,0,2.029Zm-23.889-1.353a.338.338,0,0,0,0,.676h23.889a.338.338,0,0,0,0-.676Z" transform="translate(-332.044 -389.548)" fill="#fff"/>
        </g>
      </g>
      <g id="Group_141" data-name="Group 141" transform="translate(12.505 0.484)">
        <g id="Group_140" data-name="Group 140">
          <path id="Path_110" data-name="Path 110" d="M350.882,392.042a.676.676,0,0,1-.676-.676V366.88a.676.676,0,1,1,1.353,0v24.486A.676.676,0,0,1,350.882,392.042Z" transform="translate(-349.868 -365.866)" fill="#fff"/>
          <path id="Path_111" data-name="Path 111" d="M350.72,392.218a1.016,1.016,0,0,1-1.014-1.014V366.718a1.014,1.014,0,0,1,2.029,0V391.2A1.015,1.015,0,0,1,350.72,392.218Zm0-25.838a.339.339,0,0,0-.338.338V391.2a.338.338,0,0,0,.676,0V366.718A.339.339,0,0,0,350.72,366.38Z" transform="translate(-349.706 -365.704)" fill="#fff"/>
        </g>
      </g>
    </g>
    <g id="Group_156" data-name="Group 156" transform="translate(308.687 339.883)">
      <g id="Group_144" data-name="Group 144" transform="translate(40.297 38.132)">
        <g id="Group_143" data-name="Group 143">
          <path id="Path_112" data-name="Path 112" d="M379.18,415.638a2.849,2.849,0,0,1-2.021-.836l-2.607-2.608-1.167,1.166a1.767,1.767,0,0,1-2.982-.9l-1.593-7.968a1.766,1.766,0,0,1,2.08-2.079L378.857,404a1.767,1.767,0,0,1,.9,2.982l-1.167,1.167,2.608,2.607a2.857,2.857,0,0,1-2.021,4.879Zm-4.628-5.077h0a.678.678,0,0,1,.478.2l3.085,3.086a1.544,1.544,0,0,0,2.13,0,1.508,1.508,0,0,0,0-2.13l-3.086-3.086a.677.677,0,0,1,0-.956l1.645-1.645a.414.414,0,0,0-.212-.7l-7.968-1.593a.418.418,0,0,0-.375.113.411.411,0,0,0-.113.374l1.593,7.968a.415.415,0,0,0,.7.212l1.645-1.645A.676.676,0,0,1,374.552,410.561Z" transform="translate(-368.436 -402.039)" fill="#fff"/>
          <path id="Path_113" data-name="Path 113" d="M379.018,415.814a3.175,3.175,0,0,1-2.26-.935l-2.368-2.369-.927.927a2.105,2.105,0,0,1-3.553-1.076l-1.594-7.968a2.1,2.1,0,0,1,2.477-2.476l7.969,1.593a2.1,2.1,0,0,1,1.075,3.552l-.927.927,2.368,2.368a3.2,3.2,0,0,1-2.259,5.455Zm-4.628-4.26,2.846,2.846a2.581,2.581,0,0,0,3.563,0,2.523,2.523,0,0,0,0-3.564l-2.846-2.846,1.405-1.405a1.428,1.428,0,0,0-.73-2.412l-7.968-1.593a1.429,1.429,0,0,0-1.682,1.681l1.593,7.968a1.43,1.43,0,0,0,2.412.73Zm4.628,2.9a1.838,1.838,0,0,1-1.3-.53l-3.086-3.086a.346.346,0,0,0-.478,0l-1.644,1.645a.753.753,0,0,1-1.271-.385l-1.594-7.968a.747.747,0,0,1,.2-.678.756.756,0,0,1,.682-.207l7.968,1.594a.752.752,0,0,1,.384,1.27l-1.644,1.644a.337.337,0,0,0,0,.478l3.085,3.086a1.833,1.833,0,0,1-1.3,3.137Zm-4.628-4.391a1.008,1.008,0,0,1,.717.3l3.086,3.086a1.2,1.2,0,0,0,1.651,0,1.169,1.169,0,0,0,0-1.651l-3.085-3.085a1.014,1.014,0,0,1,0-1.435l1.644-1.644a.067.067,0,0,0,.02-.076.066.066,0,0,0-.057-.053l-7.968-1.593a.076.076,0,0,0-.073.024.069.069,0,0,0-.018.066l1.593,7.968a.068.068,0,0,0,.054.058.065.065,0,0,0,.075-.018l1.645-1.645A1.009,1.009,0,0,1,374.389,410.061Z" transform="translate(-368.274 -401.877)" fill="#fff"/>
        </g>
      </g>
      <g id="Group_155" data-name="Group 155">
        <g id="Group_146" data-name="Group 146">
          <g id="Group_145" data-name="Group 145">
            <path id="Path_114" data-name="Path 114" d="M364.371,391.429h-4.7a.676.676,0,1,1,0-1.353h4.7a.562.562,0,0,0,.562-.561V347.9a.562.562,0,0,0-.562-.561H311.1a.562.562,0,0,0-.561.561v41.611a.561.561,0,0,0,.561.561h40.012a.676.676,0,1,1,0,1.353H311.1a1.916,1.916,0,0,1-1.913-1.913V347.9a1.916,1.916,0,0,1,1.913-1.914h53.271a1.917,1.917,0,0,1,1.914,1.914v41.611A1.916,1.916,0,0,1,364.371,391.429Z" transform="translate(-308.849 -345.653)" fill="#fff"/>
            <path id="Path_115" data-name="Path 115" d="M364.209,391.605h-4.7a1.014,1.014,0,1,1,0-2.029h4.7a.224.224,0,0,0,.224-.223V347.743a.224.224,0,0,0-.224-.223H310.938a.224.224,0,0,0-.222.223v41.611a.223.223,0,0,0,.222.223H350.95a1.014,1.014,0,1,1,0,2.029H310.938a2.254,2.254,0,0,1-2.251-2.251V347.743a2.255,2.255,0,0,1,2.251-2.252h53.271a2.255,2.255,0,0,1,2.253,2.252v41.611A2.255,2.255,0,0,1,364.209,391.605Zm-4.7-1.353a.338.338,0,0,0,0,.676h4.7a1.577,1.577,0,0,0,1.576-1.575V347.743a1.577,1.577,0,0,0-1.576-1.576H310.938a1.577,1.577,0,0,0-1.575,1.576v41.611a1.577,1.577,0,0,0,1.575,1.575H350.95a.338.338,0,0,0,0-.676H310.938a.9.9,0,0,1-.9-.9V347.743a.9.9,0,0,1,.9-.9h53.271a.9.9,0,0,1,.9.9v41.611a.9.9,0,0,1-.9.9Z" transform="translate(-308.687 -345.491)" fill="#fff"/>
          </g>
        </g>
        <g id="Group_148" data-name="Group 148" transform="translate(0 8.198)">
          <g id="Group_147" data-name="Group 147">
            <path id="Path_116" data-name="Path 116" d="M365.609,359.467H309.863a.676.676,0,1,1,0-1.353h55.746a.676.676,0,0,1,0,1.353Z" transform="translate(-308.849 -357.776)" fill="#fff"/>
            <path id="Path_117" data-name="Path 117" d="M365.447,359.643H309.7a1.014,1.014,0,0,1,0-2.029h55.746a1.014,1.014,0,0,1,0,2.029ZM309.7,358.29a.338.338,0,0,0,0,.676h55.746a.338.338,0,0,0,0-.676Z" transform="translate(-308.687 -357.614)" fill="#fff"/>
          </g>
        </g>
        <g id="Group_150" data-name="Group 150" transform="translate(12.207 3.588)">
          <g id="Group_149" data-name="Group 149">
            <circle id="Ellipse_9" data-name="Ellipse 9" cx="1.265" cy="1.265" r="1.265" transform="translate(0.338 0.338)" fill="#fff"/>
            <path id="Path_118" data-name="Path 118" d="M328.34,354a1.6,1.6,0,1,1,1.6-1.6A1.6,1.6,0,0,1,328.34,354Zm0-2.529a.926.926,0,1,0,.926.926A.928.928,0,0,0,328.34,351.473Z" transform="translate(-326.737 -350.797)" fill="#fff"/>
          </g>
        </g>
        <g id="Group_152" data-name="Group 152" transform="translate(8.386 3.588)">
          <g id="Group_151" data-name="Group 151">
            <circle id="Ellipse_10" data-name="Ellipse 10" cx="1.265" cy="1.265" r="1.265" transform="translate(0.338 0.338)" fill="#fff"/>
            <path id="Path_119" data-name="Path 119" d="M322.69,354a1.6,1.6,0,1,1,1.6-1.6A1.6,1.6,0,0,1,322.69,354Zm0-2.529a.926.926,0,1,0,.926.926A.927.927,0,0,0,322.69,351.473Z" transform="translate(-321.087 -350.797)" fill="#fff"/>
          </g>
        </g>
        <g id="Group_154" data-name="Group 154" transform="translate(4.646 3.588)">
          <g id="Group_153" data-name="Group 153">
            <circle id="Ellipse_11" data-name="Ellipse 11" cx="1.265" cy="1.265" r="1.265" transform="translate(0.338 0.338)" fill="#fff"/>
            <path id="Path_120" data-name="Path 120" d="M317.16,354a1.6,1.6,0,1,1,1.6-1.6A1.6,1.6,0,0,1,317.16,354Zm0-2.529a.926.926,0,1,0,.927.926A.927.927,0,0,0,317.16,351.473Z" transform="translate(-315.557 -350.797)" fill="#fff"/>
          </g>
        </g>
      </g>
    </g>
  </g>
</svg>
